<svg width="76.799438" height="18.300781" viewBox="0 0 76.7994 18.3008" fill="none" xmlns="http://www.w3.org/2000/svg" xmlns:xlink="http://www.w3.org/1999/xlink">
	<desc>
			Created with Pixso.
	</desc>
	<path id="singularity" d="M41.5666 13.6475Q41.8791 13.8574 41.9182 13.877L42.758 12.4805L42.5773 12.3486Q42.4016 12.2168 42.1916 11.9971Q41.9816 11.7773 41.801 11.4697Q41.7464 11.3753 41.7083 11.2746Q41.6203 11.0421 41.6203 10.7764L41.6203 0L39.4426 0L39.4426 1.64062L39.9602 1.64062L39.9602 10.7764Q39.9602 11.499 40.2482 12.0654Q40.5412 12.6367 40.8977 13.0371Q41.259 13.4375 41.5666 13.6475ZM8.75859 3.9209L10.3992 3.9209L10.3992 2.13867L8.75859 2.13867L8.75859 3.9209ZM57.7785 3.9209L59.4192 3.9209L59.4192 2.13867L57.7785 2.13867L57.7785 3.9209ZM64.2614 6.55762L66.6003 6.55762L66.6003 5L64.2614 5L64.2614 2.41699L62.2204 2.41699L62.2204 3.97949L62.6794 3.97949L62.6794 5L60.4821 5L60.4821 6.55762L62.6794 6.55762L62.6794 9.81934Q62.6794 11.6406 63.5387 12.6904Q63.8492 13.0697 64.2437 13.3119Q64.9414 13.7402 65.902 13.7402L65.902 12.1777Q65.367 12.1777 65.0064 11.9269Q64.2614 11.4086 64.2614 9.81934L64.2614 6.55762ZM3.44727 13.9209L3.7207 13.9209Q3.81542 13.9209 3.91001 13.9174Q4.39568 13.8994 4.87793 13.7891Q5.45898 13.6572 5.94727 13.3887Q6.29839 13.1975 6.57526 12.9295Q6.68726 12.8211 6.78711 12.7002Q6.8897 12.5777 6.97274 12.4431Q7.17429 12.1164 7.26074 11.7188Q7.38167 11.1618 7.26884 10.657Q7.23133 10.4892 7.16797 10.3271Q7.14919 10.2782 7.12819 10.2302Q6.87071 9.64166 6.2793 9.19922Q5.38086 8.50098 3.61816 8.12012Q3.08105 7.99805 2.6709 7.75879Q2.26074 7.51953 2.09961 7.23633Q2.02252 7.05325 2.0384 6.87863Q2.04666 6.78778 2.08008 6.69922Q2.13207 6.57001 2.21304 6.46268Q2.38301 6.23737 2.68066 6.1084Q3.12012 5.91797 3.55957 5.89844Q3.88184 5.87891 4.22852 5.95215Q4.36511 5.9787 4.49802 6.01779Q4.70719 6.07932 4.90723 6.17188Q5.04548 6.23288 5.17273 6.31165Q5.35108 6.42206 5.50781 6.56738Q5.54379 6.60016 5.57816 6.63452Q5.80502 6.86139 5.96191 7.1582L7.37793 6.47949Q7.10369 5.8877 6.66352 5.47131Q6.65697 5.46515 6.65039 5.45898Q6.23507 5.07074 5.74881 4.82025Q5.70911 4.7998 5.66895 4.78027Q5.30062 4.5961 4.91084 4.49292Q4.74258 4.44839 4.57031 4.41895Q3.99902 4.31641 3.48145 4.34082Q2.53361 4.37711 1.80059 4.79248Q1.74439 4.82431 1.68945 4.8584Q1.24338 5.13507 0.949124 5.52603Q0.734459 5.81122 0.600586 6.15723Q0.425171 6.64087 0.461959 7.10779Q0.496853 7.55069 0.722656 7.97852Q1.05957 8.5791 1.72852 9.01855Q2.40234 9.45801 3.30078 9.6582Q4.30176 9.87793 4.80957 10.1416Q5.32227 10.4004 5.53223 10.6396Q5.74219 10.8789 5.74219 11.0889Q5.74219 11.2988 5.72266 11.3965Q5.65918 11.6211 5.43945 11.8066Q5.21973 11.9971 4.89746 12.1387Q4.58008 12.2803 4.17969 12.3291Q3.7793 12.3779 3.35938 12.3389Q2.5557 12.2609 2.0731 11.8264Q1.67901 11.4715 1.49902 10.8789L0 11.3379Q0.301939 12.3472 0.965867 12.9717Q1.05351 13.0541 1.14746 13.1299Q1.95801 13.7793 3.19824 13.8965Q3.32031 13.9209 3.44727 13.9209ZM53.079 13.7598L54.7197 13.7598L54.7197 8.25684Q54.7467 8.06281 54.804 7.87817Q54.8707 7.66321 54.9784 7.46094Q55.1786 7.08008 55.4765 6.81152Q55.5087 6.78238 55.5421 6.75458Q55.8219 6.52142 56.1796 6.38184Q56.33 6.32132 56.4858 6.28354Q56.745 6.2207 57.0195 6.2207L57.0195 4.59961Q56.549 4.59961 56.1049 4.70792Q55.9452 4.74686 55.789 4.7998Q55.1982 5 54.7197 5.33691L54.7197 4.63867L53.079 4.63867L53.079 13.7598ZM23.3491 17.6785Q24.086 17.9199 24.9019 17.9199Q25.5611 17.9199 26.2984 17.7588Q26.7623 17.6367 27.3189 17.3975Q27.6492 17.2567 27.9542 17.0737Q28.1676 16.9456 28.3687 16.7969Q28.8619 16.4404 29.1792 15.9863Q29.3652 15.7272 29.4438 15.4388Q29.5015 15.2272 29.5015 15Q29.5015 14.8389 29.4576 14.6289Q29.4185 14.4189 29.2867 14.1895Q29.1597 13.96 28.9205 13.7305Q28.6812 13.501 28.3003 13.3203Q27.8481 13.1208 27.3756 13.0421Q27.3278 13.0341 27.2798 13.0273Q26.7623 12.959 26.3619 12.959L26.0005 12.959Q25.8199 12.959 25.6392 12.9785Q25.3218 12.9785 24.98 12.9883Q24.6382 12.998 24.3501 12.9688Q24.0621 12.9395 23.8423 12.8662Q23.6561 12.8083 23.5821 12.6837Q23.5688 12.6613 23.5591 12.6367L23.5591 12.5977Q23.5591 12.5 23.7886 12.2998Q24.0181 12.0996 24.3404 11.9385Q24.7798 12.0605 25.3023 12.0605Q25.951 12.0605 26.5347 11.8659Q26.6673 11.8218 26.7964 11.7676Q27.3674 11.5336 27.816 11.1548Q27.9199 11.0671 28.0171 10.9717Q28.277 10.7166 28.4814 10.4229Q28.6878 10.1262 28.8374 9.79004Q28.8854 9.68402 28.9258 9.5752Q29.1402 8.99728 29.1402 8.33984Q29.1402 8.03311 29.0812 7.73816Q29.0745 7.70447 29.0669 7.6709Q28.9986 7.33887 28.9009 7.04102L29.5601 7.04102L29.5601 5.41992L27.6802 5.41992Q27.5044 5.28549 27.3159 5.17236Q26.9702 4.96497 26.5816 4.8291Q25.981 4.61914 25.3023 4.61914Q24.6457 4.61914 24.0547 4.81613Q23.9249 4.85938 23.7984 4.91211Q23.3003 5.11761 22.8916 5.43744Q22.7274 5.56595 22.5777 5.71289Q22.3669 5.91971 22.1917 6.15326Q21.9368 6.49313 21.7574 6.88965Q21.7174 6.97937 21.6828 7.07111Q21.4595 7.66336 21.4595 8.33984Q21.4595 9.1069 21.7324 9.75992Q21.7583 9.82187 21.7867 9.88281Q21.9391 10.2034 22.1441 10.486Q22.3855 10.8187 22.6998 11.0986Q22.4996 11.2793 22.3287 11.499Q22.2702 11.5764 22.2197 11.6585Q22.1266 11.8098 22.0601 11.9775Q21.9383 12.2878 21.9355 12.5991Q21.9323 12.9492 22.0796 13.3008Q22.2408 13.5986 22.4019 13.7988Q21.9624 14.2383 21.7623 14.7607Q21.5526 15.3054 21.6228 15.8112Q21.6866 16.2713 21.982 16.6992Q22.1657 16.9631 22.4018 17.1659Q22.7556 17.4698 23.2271 17.6367Q23.2878 17.6584 23.3491 17.6785ZM33.7928 13.3716Q34.2493 13.501 34.7425 13.501Q35.2214 13.501 35.6642 13.3745Q35.736 13.3539 35.8069 13.3301Q36.0188 13.2595 36.2181 13.163Q36.5012 13.026 36.7591 12.8369L36.7591 13.3398L38.3411 13.3398L38.3411 4.76074L36.7591 4.76074L36.7591 9.83887Q36.74 10.269 36.5852 10.6429Q36.5819 10.6511 36.5784 10.6592Q36.489 10.877 36.3581 11.0661Q36.2602 11.2076 36.139 11.333Q35.9684 11.5096 35.7666 11.6367Q35.6392 11.7169 35.4993 11.7773Q35.318 11.8582 35.1281 11.8985Q34.9395 11.9385 34.7425 11.9385Q34.4699 11.9385 34.2179 11.8665Q34.0817 11.8275 33.9515 11.7676Q33.7411 11.6707 33.5621 11.533Q33.4254 11.4278 33.3069 11.2988Q33.0384 11.001 32.8772 10.6006Q32.721 10.2002 32.721 9.73633L32.721 4.69727L30.7825 4.69727L30.7825 6.2793L31.139 6.2793L31.139 9.73633Q31.139 10.3661 31.3198 10.9387Q31.3633 11.0764 31.4173 11.2109Q31.6687 11.8221 32.0816 12.2908Q32.1339 12.3502 32.1888 12.4072Q32.3992 12.626 32.6398 12.8038Q32.9632 13.0428 33.3411 13.208Q33.5623 13.3063 33.7928 13.3716ZM50.0997 13.7988L51.7404 13.7988L51.7404 8.13965Q51.7404 7.97852 51.7306 7.69043Q51.7208 7.39746 51.6281 7.04102Q51.5402 6.67969 51.3497 6.29883Q51.1593 5.91797 50.798 5.58105Q50.7179 5.50217 50.6318 5.43039Q49.6688 4.62714 47.9611 4.7168Q47.1017 4.76074 46.3693 5.03906Q45.6417 5.31738 45.0997 5.63965Q44.5626 5.95703 44.2501 6.23047Q43.9425 6.49902 43.9181 6.51855L45.0607 7.7002L45.2999 7.5Q45.5392 7.2998 45.9396 7.06055Q46.34 6.81641 46.8771 6.60645Q47.4191 6.39648 48.0392 6.35742Q49.1818 6.29883 49.6798 6.75781Q49.8502 6.93115 49.94 7.13928Q49.997 7.27115 50.0216 7.41699Q50.0411 7.5 50.0607 7.57812Q49.9825 7.57812 49.88 7.59766Q49.4796 7.68066 48.879 7.82227Q48.2784 7.95898 47.5997 8.15918Q46.921 8.35938 46.3595 8.61816Q45.2999 9.09668 44.7677 9.63867Q44.2404 10.1807 44.0499 10.6934Q43.8595 11.2012 43.8986 11.6211Q43.9425 12.041 44.0402 12.2803Q44.0762 12.3797 44.1207 12.4753Q44.2988 12.8582 44.6115 13.1787Q44.66 13.2285 44.7112 13.2755Q45.0713 13.6064 45.5587 13.7988Q45.8224 13.8965 46.1691 13.9746Q46.5206 14.0576 46.9796 14.0576Q47.3214 14.0576 47.7316 14.0088Q48.1417 13.96 48.6007 13.7988Q49.338 13.5791 49.88 13.2568Q49.8841 13.2537 49.8882 13.2506Q49.9872 13.1764 50.0997 13.1201L50.0997 13.7988ZM69.0406 18.3008L70.4225 18.3008L76.3795 6.31836L76.7994 6.31836L76.7994 4.73633L75.3981 4.73633L72.1803 11.2207L69.2018 4.73633L67.8004 4.73633L67.8004 6.31836L68.1813 6.31836L71.3014 13.0176L69.4606 16.7188L69.0406 16.7188L69.0406 18.3008ZM18.4397 13.6377L20.1389 13.6377L20.1389 8.70117Q20.1389 8.28867 20.0473 7.89764Q19.9697 7.56662 19.8264 7.25098Q19.6268 6.80106 19.3326 6.42517Q19.1734 6.22177 18.9866 6.04004Q18.8654 5.91998 18.7344 5.8118Q18.2954 5.44913 17.7463 5.21973Q17.4284 5.0838 17.0967 5.00891Q16.6897 4.91699 16.2619 4.91699Q15.8495 4.91699 15.4556 5.00217Q15.2758 5.04105 15.0998 5.09766Q14.6616 5.23868 14.2738 5.46594Q14.1648 5.52985 14.0598 5.60059L14.0598 5L11.76 5L11.76 6.69922L12.3606 6.69922L12.3606 13.6377L14.0598 13.6377L14.0598 8.61816Q14.0687 8.43484 14.1135 8.26071Q14.1665 8.05457 14.2698 7.86133Q14.3933 7.62701 14.5619 7.4317Q14.6534 7.32584 14.758 7.23145Q14.8347 7.16217 14.9171 7.10043Q15.1597 6.91843 15.4514 6.80176Q15.6629 6.71454 15.8829 6.67453Q16.0693 6.64062 16.2619 6.64062Q16.5604 6.64062 16.8364 6.71948Q16.9667 6.75671 17.092 6.81152Q17.3855 6.93625 17.6266 7.12714Q17.7064 7.19031 17.7805 7.26074Q17.9016 7.3739 18.0033 7.50241Q18.1518 7.68994 18.259 7.91016Q18.315 8.02368 18.3537 8.14282Q18.4397 8.40805 18.4397 8.70117L18.4397 13.6377ZM8.75859 13.7402L10.3992 13.7402L10.3992 5.40039L8.75859 5.40039L8.75859 13.7402ZM57.7785 13.7402L59.4192 13.7402L59.4192 5.40039L57.7785 5.40039L57.7785 13.7402ZM24.5302 6.37436Q24.8913 6.24023 25.3023 6.24023Q25.6279 6.24023 25.929 6.32623Q26.0523 6.36148 26.1714 6.41113Q26.5816 6.57715 26.8794 6.86035Q26.9919 6.96375 27.0869 7.08133Q27.2475 7.28018 27.358 7.51953Q27.4097 7.62854 27.4466 7.74231Q27.5386 8.02615 27.5386 8.33984Q27.5386 8.65353 27.4466 8.93738Q27.4097 9.05115 27.358 9.16016Q27.2654 9.36069 27.1377 9.53549Q27.0228 9.69269 26.8794 9.8291Q26.8471 9.86041 26.8134 9.89023Q26.537 10.1347 26.1714 10.2783Q26.0855 10.3121 25.9975 10.3387Q25.6652 10.4395 25.3023 10.4395Q24.8469 10.4395 24.4527 10.2841Q24.4454 10.2813 24.438 10.2783Q24.1783 10.1725 23.9586 10.0119Q23.8437 9.92801 23.7398 9.8291Q23.6308 9.72363 23.5374 9.60574Q23.3758 9.40161 23.2613 9.16016Q23.2096 9.05115 23.1727 8.93738Q23.0806 8.65353 23.0806 8.33984Q23.0806 8.02615 23.1727 7.74231Q23.2096 7.62854 23.2613 7.51953Q23.3945 7.23865 23.5915 7.01355Q23.6616 6.93341 23.7398 6.86035Q23.8089 6.79568 23.8829 6.73709Q24.1329 6.53925 24.438 6.41113Q24.4837 6.39163 24.5302 6.37436ZM48.132 9.67773Q48.7423 9.49707 49.2794 9.37988Q49.7384 9.27734 50.0997 9.21875L50.0997 11.0205Q49.9191 11.2402 49.6798 11.4404Q49.4406 11.6602 49.0499 11.8799Q48.6593 12.0996 48.1417 12.2607Q47.4825 12.4609 47.0089 12.4463Q46.5402 12.4365 46.2277 12.3145Q45.92 12.1973 45.7589 12.0264Q45.6027 11.8604 45.5587 11.7383Q45.5087 11.5958 45.5202 11.4584Q45.5311 11.3275 45.5978 11.2012Q45.7394 10.9375 45.9884 10.7178Q46.1072 10.6149 46.2357 10.526Q46.3817 10.4249 46.5402 10.3418Q46.838 10.1807 47.0382 10.0781Q47.5216 9.8584 48.132 9.67773ZM23.8949 14.6623Q23.9942 14.6048 24.1011 14.5605Q24.5015 14.5996 24.9019 14.5996L25.6783 14.5996Q25.8589 14.5801 26.0298 14.5801L26.3619 14.5801Q27.0796 14.5801 27.4703 14.7363Q27.8609 14.8975 27.8999 15Q27.8609 15.0977 27.6802 15.2686Q27.4996 15.4395 27.231 15.6055Q26.9624 15.7764 26.6207 15.9375Q26.2789 16.0986 25.9224 16.1768Q25.5611 16.2793 25.1607 16.2988Q24.7603 16.3184 24.399 16.2695Q24.0425 16.2207 23.7496 16.0986Q23.4681 15.9794 23.3265 15.7669Q23.3231 15.7619 23.3199 15.7568Q23.2813 15.7055 23.2597 15.6478Q23.2484 15.6177 23.2417 15.5859Q23.2222 15.498 23.2808 15.3369Q23.3589 15.0977 23.5884 14.8877Q23.7313 14.757 23.8949 14.6623Z" fill="#000000FF"/>
	<defs/>
</svg>
